<?xml version="1.0" encoding="utf-8"?>
<svg xmlns="http://www.w3.org/2000/svg" xmlns:xlink="http://www.w3.org/1999/xlink" width="600" height="400" viewBox="0 0 2400 1600">
<defs>
  <clipPath id="clip2600">
    <rect x="0" y="0" width="2000" height="2000"/>
  </clipPath>
</defs>
<defs>
  <clipPath id="clip2601">
    <rect x="0" y="0" width="2400" height="1600"/>
  </clipPath>
</defs>
<polygon clip-path="url(#clip2601)" points="
0,1600 2400,1600 2400,0 0,0 
  " fill="#ffffff" fill-opacity="1"/>
<defs>
  <clipPath id="clip2602">
    <rect x="480" y="0" width="1681" height="1600"/>
  </clipPath>
</defs>
<polygon clip-path="url(#clip2601)" points="
251.149,1440.48 2321.26,1440.48 2321.26,125.984 251.149,125.984 
  " fill="#ffffff" fill-opacity="1"/>
<defs>
  <clipPath id="clip2603">
    <rect x="251" y="125" width="2071" height="1315"/>
  </clipPath>
</defs>
<polyline clip-path="url(#clip2603)" style="stroke:#000000; stroke-width:2; stroke-opacity:0.1; fill:none" points="
  505.03,1440.48 505.03,125.984 
  "/>
<polyline clip-path="url(#clip2603)" style="stroke:#000000; stroke-width:2; stroke-opacity:0.1; fill:none" points="
  830.519,1440.48 830.519,125.984 
  "/>
<polyline clip-path="url(#clip2603)" style="stroke:#000000; stroke-width:2; stroke-opacity:0.1; fill:none" points="
  1156.01,1440.48 1156.01,125.984 
  "/>
<polyline clip-path="url(#clip2603)" style="stroke:#000000; stroke-width:2; stroke-opacity:0.1; fill:none" points="
  1481.5,1440.48 1481.5,125.984 
  "/>
<polyline clip-path="url(#clip2603)" style="stroke:#000000; stroke-width:2; stroke-opacity:0.1; fill:none" points="
  1806.99,1440.48 1806.99,125.984 
  "/>
<polyline clip-path="url(#clip2603)" style="stroke:#000000; stroke-width:2; stroke-opacity:0.1; fill:none" points="
  2132.48,1440.48 2132.48,125.984 
  "/>
<polyline clip-path="url(#clip2603)" style="stroke:#000000; stroke-width:2; stroke-opacity:0.1; fill:none" points="
  251.149,1358.92 2321.26,1358.92 
  "/>
<polyline clip-path="url(#clip2603)" style="stroke:#000000; stroke-width:2; stroke-opacity:0.1; fill:none" points="
  251.149,1063.89 2321.26,1063.89 
  "/>
<polyline clip-path="url(#clip2603)" style="stroke:#000000; stroke-width:2; stroke-opacity:0.1; fill:none" points="
  251.149,768.863 2321.26,768.863 
  "/>
<polyline clip-path="url(#clip2603)" style="stroke:#000000; stroke-width:2; stroke-opacity:0.1; fill:none" points="
  251.149,473.837 2321.26,473.837 
  "/>
<polyline clip-path="url(#clip2603)" style="stroke:#000000; stroke-width:2; stroke-opacity:0.1; fill:none" points="
  251.149,178.81 2321.26,178.81 
  "/>
<polyline clip-path="url(#clip2601)" style="stroke:#000000; stroke-width:4; stroke-opacity:1; fill:none" points="
  251.149,1440.48 2321.26,1440.48 
  "/>
<polyline clip-path="url(#clip2601)" style="stroke:#000000; stroke-width:4; stroke-opacity:1; fill:none" points="
  251.149,1440.48 251.149,125.984 
  "/>
<polyline clip-path="url(#clip2601)" style="stroke:#000000; stroke-width:4; stroke-opacity:1; fill:none" points="
  505.03,1440.48 505.03,1420.77 
  "/>
<polyline clip-path="url(#clip2601)" style="stroke:#000000; stroke-width:4; stroke-opacity:1; fill:none" points="
  830.519,1440.48 830.519,1420.77 
  "/>
<polyline clip-path="url(#clip2601)" style="stroke:#000000; stroke-width:4; stroke-opacity:1; fill:none" points="
  1156.01,1440.48 1156.01,1420.77 
  "/>
<polyline clip-path="url(#clip2601)" style="stroke:#000000; stroke-width:4; stroke-opacity:1; fill:none" points="
  1481.5,1440.48 1481.5,1420.77 
  "/>
<polyline clip-path="url(#clip2601)" style="stroke:#000000; stroke-width:4; stroke-opacity:1; fill:none" points="
  1806.99,1440.48 1806.99,1420.77 
  "/>
<polyline clip-path="url(#clip2601)" style="stroke:#000000; stroke-width:4; stroke-opacity:1; fill:none" points="
  2132.48,1440.48 2132.48,1420.77 
  "/>
<polyline clip-path="url(#clip2601)" style="stroke:#000000; stroke-width:4; stroke-opacity:1; fill:none" points="
  251.149,1358.92 282.2,1358.92 
  "/>
<polyline clip-path="url(#clip2601)" style="stroke:#000000; stroke-width:4; stroke-opacity:1; fill:none" points="
  251.149,1063.89 282.2,1063.89 
  "/>
<polyline clip-path="url(#clip2601)" style="stroke:#000000; stroke-width:4; stroke-opacity:1; fill:none" points="
  251.149,768.863 282.2,768.863 
  "/>
<polyline clip-path="url(#clip2601)" style="stroke:#000000; stroke-width:4; stroke-opacity:1; fill:none" points="
  251.149,473.837 282.2,473.837 
  "/>
<polyline clip-path="url(#clip2601)" style="stroke:#000000; stroke-width:4; stroke-opacity:1; fill:none" points="
  251.149,178.81 282.2,178.81 
  "/>
<g clip-path="url(#clip2601)">
<text style="fill:#000000; fill-opacity:1; font-family:Arial,Helvetica Neue,Helvetica,sans-serif; font-size:48; text-anchor:middle;" transform="rotate(0, 505.03, 1494.48)" x="505.03" y="1494.48">7.5</text>
</g>
<g clip-path="url(#clip2601)">
<text style="fill:#000000; fill-opacity:1; font-family:Arial,Helvetica Neue,Helvetica,sans-serif; font-size:48; text-anchor:middle;" transform="rotate(0, 830.519, 1494.48)" x="830.519" y="1494.48">10.0</text>
</g>
<g clip-path="url(#clip2601)">
<text style="fill:#000000; fill-opacity:1; font-family:Arial,Helvetica Neue,Helvetica,sans-serif; font-size:48; text-anchor:middle;" transform="rotate(0, 1156.01, 1494.48)" x="1156.01" y="1494.48">12.5</text>
</g>
<g clip-path="url(#clip2601)">
<text style="fill:#000000; fill-opacity:1; font-family:Arial,Helvetica Neue,Helvetica,sans-serif; font-size:48; text-anchor:middle;" transform="rotate(0, 1481.5, 1494.48)" x="1481.5" y="1494.48">15.0</text>
</g>
<g clip-path="url(#clip2601)">
<text style="fill:#000000; fill-opacity:1; font-family:Arial,Helvetica Neue,Helvetica,sans-serif; font-size:48; text-anchor:middle;" transform="rotate(0, 1806.99, 1494.48)" x="1806.99" y="1494.48">17.5</text>
</g>
<g clip-path="url(#clip2601)">
<text style="fill:#000000; fill-opacity:1; font-family:Arial,Helvetica Neue,Helvetica,sans-serif; font-size:48; text-anchor:middle;" transform="rotate(0, 2132.48, 1494.48)" x="2132.48" y="1494.48">20.0</text>
</g>
<g clip-path="url(#clip2601)">
<text style="fill:#000000; fill-opacity:1; font-family:Arial,Helvetica Neue,Helvetica,sans-serif; font-size:48; text-anchor:end;" transform="rotate(0, 227.149, 1376.42)" x="227.149" y="1376.42">0.80</text>
</g>
<g clip-path="url(#clip2601)">
<text style="fill:#000000; fill-opacity:1; font-family:Arial,Helvetica Neue,Helvetica,sans-serif; font-size:48; text-anchor:end;" transform="rotate(0, 227.149, 1081.39)" x="227.149" y="1081.39">0.85</text>
</g>
<g clip-path="url(#clip2601)">
<text style="fill:#000000; fill-opacity:1; font-family:Arial,Helvetica Neue,Helvetica,sans-serif; font-size:48; text-anchor:end;" transform="rotate(0, 227.149, 786.363)" x="227.149" y="786.363">0.90</text>
</g>
<g clip-path="url(#clip2601)">
<text style="fill:#000000; fill-opacity:1; font-family:Arial,Helvetica Neue,Helvetica,sans-serif; font-size:48; text-anchor:end;" transform="rotate(0, 227.149, 491.337)" x="227.149" y="491.337">0.95</text>
</g>
<g clip-path="url(#clip2601)">
<text style="fill:#000000; fill-opacity:1; font-family:Arial,Helvetica Neue,Helvetica,sans-serif; font-size:48; text-anchor:end;" transform="rotate(0, 227.149, 196.31)" x="227.149" y="196.31">1.00</text>
</g>
<g clip-path="url(#clip2601)">
<text style="fill:#000000; fill-opacity:1; font-family:Arial,Helvetica Neue,Helvetica,sans-serif; font-size:84; text-anchor:middle;" transform="rotate(0, 1286.2, 73.2)" x="1286.2" y="73.2">LTM6423 Efficiency @ Vout = 3.3V</text>
</g>
<g clip-path="url(#clip2601)">
<text style="fill:#000000; fill-opacity:1; font-family:Arial,Helvetica Neue,Helvetica,sans-serif; font-size:66; text-anchor:middle;" transform="rotate(0, 1286.2, 1590.4)" x="1286.2" y="1590.4">Vin (V)</text>
</g>
<g clip-path="url(#clip2601)">
<text style="fill:#000000; fill-opacity:1; font-family:Arial,Helvetica Neue,Helvetica,sans-serif; font-size:66; text-anchor:middle;" transform="rotate(-90, 57.6, 783.233)" x="57.6" y="783.233">Efficiency</text>
</g>
<polyline clip-path="url(#clip2603)" style="stroke:#009af9; stroke-width:4; stroke-opacity:1; fill:none" points="
  309.737,517.518 505.03,579.069 700.324,673.704 895.617,747.422 1090.91,878.029 1286.2,973.101 1481.5,1069.81 1676.79,1110.15 1872.08,1271.11 2067.38,1301.58 
  2262.67,1403.28 
  "/>
<polyline clip-path="url(#clip2603)" style="stroke:#e26f46; stroke-width:4; stroke-opacity:1; fill:none" points="
  309.737,522.014 505.03,554.435 700.324,641.925 895.617,679.888 1090.91,786.823 1286.2,837.673 1481.5,901.197 1676.79,956.667 1872.08,1059.71 2067.38,1135.26 
  2262.67,1197.7 
  "/>
<polyline clip-path="url(#clip2603)" style="stroke:#3da44d; stroke-width:4; stroke-opacity:1; fill:none" points="
  309.737,548.301 505.03,556.66 700.324,608.248 895.617,663.307 1090.91,668.308 1286.2,766.414 1481.5,839.047 1676.79,864.599 1872.08,915.471 2067.38,966.786 
  2262.67,1047.52 
  "/>
<polyline clip-path="url(#clip2603)" style="stroke:#c271d2; stroke-width:4; stroke-opacity:1; fill:none" points="
  309.737,609.916 505.03,649.433 700.324,656.585 895.617,670.429 1090.91,727.619 1286.2,735.958 1481.5,784.113 1676.79,869.625 1872.08,868.034 2067.38,933.742 
  2262.67,965.241 
  "/>
<polyline clip-path="url(#clip2603)" style="stroke:#ac8d18; stroke-width:4; stroke-opacity:1; fill:none" points="
  309.737,677.066 505.03,679.907 700.324,683.873 895.617,723.552 1090.91,759.103 1286.2,799.149 1481.5,825.023 1676.79,843.158 1872.08,890.433 2067.38,896.937 
  2262.67,983.316 
  "/>
<polyline clip-path="url(#clip2603)" style="stroke:#00a9ad; stroke-width:4; stroke-opacity:1; fill:none" points="
  309.737,729.166 505.03,166.207 700.324,181.579 895.617,163.187 1090.91,163.736 1286.2,307.061 1481.5,264.87 1676.79,280.038 1872.08,408.379 2067.38,477.254 
  2262.67,520.871 
  "/>
<polygon clip-path="url(#clip2601)" points="
1807.19,632.864 2249.26,632.864 2249.26,209.504 1807.19,209.504 
  " fill="#ffffff" fill-opacity="1"/>
<polyline clip-path="url(#clip2601)" style="stroke:#000000; stroke-width:4; stroke-opacity:1; fill:none" points="
  1807.19,632.864 2249.26,632.864 2249.26,209.504 1807.19,209.504 1807.19,632.864 
  "/>
<polyline clip-path="url(#clip2601)" style="stroke:#009af9; stroke-width:4; stroke-opacity:1; fill:none" points="
  1831.19,269.984 1975.19,269.984 
  "/>
<g clip-path="url(#clip2601)">
<text style="fill:#000000; fill-opacity:1; font-family:Arial,Helvetica Neue,Helvetica,sans-serif; font-size:48; text-anchor:start;" transform="rotate(0, 1999.19, 287.484)" x="1999.19" y="287.484">Iout=0.50</text>
</g>
<polyline clip-path="url(#clip2601)" style="stroke:#e26f46; stroke-width:4; stroke-opacity:1; fill:none" points="
  1831.19,330.464 1975.19,330.464 
  "/>
<g clip-path="url(#clip2601)">
<text style="fill:#000000; fill-opacity:1; font-family:Arial,Helvetica Neue,Helvetica,sans-serif; font-size:48; text-anchor:start;" transform="rotate(0, 1999.19, 347.964)" x="1999.19" y="347.964">Iout=1.00</text>
</g>
<polyline clip-path="url(#clip2601)" style="stroke:#3da44d; stroke-width:4; stroke-opacity:1; fill:none" points="
  1831.19,390.944 1975.19,390.944 
  "/>
<g clip-path="url(#clip2601)">
<text style="fill:#000000; fill-opacity:1; font-family:Arial,Helvetica Neue,Helvetica,sans-serif; font-size:48; text-anchor:start;" transform="rotate(0, 1999.19, 408.444)" x="1999.19" y="408.444">Iout=1.50</text>
</g>
<polyline clip-path="url(#clip2601)" style="stroke:#c271d2; stroke-width:4; stroke-opacity:1; fill:none" points="
  1831.19,451.424 1975.19,451.424 
  "/>
<g clip-path="url(#clip2601)">
<text style="fill:#000000; fill-opacity:1; font-family:Arial,Helvetica Neue,Helvetica,sans-serif; font-size:48; text-anchor:start;" transform="rotate(0, 1999.19, 468.924)" x="1999.19" y="468.924">Iout=2.00</text>
</g>
<polyline clip-path="url(#clip2601)" style="stroke:#ac8d18; stroke-width:4; stroke-opacity:1; fill:none" points="
  1831.19,511.904 1975.19,511.904 
  "/>
<g clip-path="url(#clip2601)">
<text style="fill:#000000; fill-opacity:1; font-family:Arial,Helvetica Neue,Helvetica,sans-serif; font-size:48; text-anchor:start;" transform="rotate(0, 1999.19, 529.404)" x="1999.19" y="529.404">Iout=2.50</text>
</g>
<polyline clip-path="url(#clip2601)" style="stroke:#00a9ad; stroke-width:4; stroke-opacity:1; fill:none" points="
  1831.19,572.384 1975.19,572.384 
  "/>
<g clip-path="url(#clip2601)">
<text style="fill:#000000; fill-opacity:1; font-family:Arial,Helvetica Neue,Helvetica,sans-serif; font-size:48; text-anchor:start;" transform="rotate(0, 1999.19, 589.884)" x="1999.19" y="589.884">Iout=3.00</text>
</g>
</svg>
