<?xml version="1.0" encoding="utf-8"?>
<svg xmlns="http://www.w3.org/2000/svg" xmlns:xlink="http://www.w3.org/1999/xlink" width="600" height="400" viewBox="0 0 2400 1600">
<defs>
  <clipPath id="clip2400">
    <rect x="0" y="0" width="2000" height="2000"/>
  </clipPath>
</defs>
<defs>
  <clipPath id="clip2401">
    <rect x="0" y="0" width="2400" height="1600"/>
  </clipPath>
</defs>
<polygon clip-path="url(#clip2401)" points="
0,1600 2400,1600 2400,0 0,0 
  " fill="#ffffff" fill-opacity="1"/>
<defs>
  <clipPath id="clip2402">
    <rect x="480" y="0" width="1681" height="1600"/>
  </clipPath>
</defs>
<polygon clip-path="url(#clip2401)" points="
251.149,1440.48 2321.26,1440.48 2321.26,125.984 251.149,125.984 
  " fill="#ffffff" fill-opacity="1"/>
<defs>
  <clipPath id="clip2403">
    <rect x="251" y="125" width="2071" height="1315"/>
  </clipPath>
</defs>
<polyline clip-path="url(#clip2403)" style="stroke:#000000; stroke-width:2; stroke-opacity:0.1; fill:none" points="
  505.03,1440.48 505.03,125.984 
  "/>
<polyline clip-path="url(#clip2403)" style="stroke:#000000; stroke-width:2; stroke-opacity:0.1; fill:none" points="
  830.519,1440.48 830.519,125.984 
  "/>
<polyline clip-path="url(#clip2403)" style="stroke:#000000; stroke-width:2; stroke-opacity:0.1; fill:none" points="
  1156.01,1440.48 1156.01,125.984 
  "/>
<polyline clip-path="url(#clip2403)" style="stroke:#000000; stroke-width:2; stroke-opacity:0.1; fill:none" points="
  1481.5,1440.48 1481.5,125.984 
  "/>
<polyline clip-path="url(#clip2403)" style="stroke:#000000; stroke-width:2; stroke-opacity:0.1; fill:none" points="
  1806.99,1440.48 1806.99,125.984 
  "/>
<polyline clip-path="url(#clip2403)" style="stroke:#000000; stroke-width:2; stroke-opacity:0.1; fill:none" points="
  2132.48,1440.48 2132.48,125.984 
  "/>
<polyline clip-path="url(#clip2403)" style="stroke:#000000; stroke-width:2; stroke-opacity:0.1; fill:none" points="
  251.149,1328.34 2321.26,1328.34 
  "/>
<polyline clip-path="url(#clip2403)" style="stroke:#000000; stroke-width:2; stroke-opacity:0.1; fill:none" points="
  251.149,1054.51 2321.26,1054.51 
  "/>
<polyline clip-path="url(#clip2403)" style="stroke:#000000; stroke-width:2; stroke-opacity:0.1; fill:none" points="
  251.149,780.684 2321.26,780.684 
  "/>
<polyline clip-path="url(#clip2403)" style="stroke:#000000; stroke-width:2; stroke-opacity:0.1; fill:none" points="
  251.149,506.855 2321.26,506.855 
  "/>
<polyline clip-path="url(#clip2403)" style="stroke:#000000; stroke-width:2; stroke-opacity:0.1; fill:none" points="
  251.149,233.026 2321.26,233.026 
  "/>
<polyline clip-path="url(#clip2401)" style="stroke:#000000; stroke-width:4; stroke-opacity:1; fill:none" points="
  251.149,1440.48 2321.26,1440.48 
  "/>
<polyline clip-path="url(#clip2401)" style="stroke:#000000; stroke-width:4; stroke-opacity:1; fill:none" points="
  251.149,1440.48 251.149,125.984 
  "/>
<polyline clip-path="url(#clip2401)" style="stroke:#000000; stroke-width:4; stroke-opacity:1; fill:none" points="
  505.03,1440.48 505.03,1420.77 
  "/>
<polyline clip-path="url(#clip2401)" style="stroke:#000000; stroke-width:4; stroke-opacity:1; fill:none" points="
  830.519,1440.48 830.519,1420.77 
  "/>
<polyline clip-path="url(#clip2401)" style="stroke:#000000; stroke-width:4; stroke-opacity:1; fill:none" points="
  1156.01,1440.48 1156.01,1420.77 
  "/>
<polyline clip-path="url(#clip2401)" style="stroke:#000000; stroke-width:4; stroke-opacity:1; fill:none" points="
  1481.5,1440.48 1481.5,1420.77 
  "/>
<polyline clip-path="url(#clip2401)" style="stroke:#000000; stroke-width:4; stroke-opacity:1; fill:none" points="
  1806.99,1440.48 1806.99,1420.77 
  "/>
<polyline clip-path="url(#clip2401)" style="stroke:#000000; stroke-width:4; stroke-opacity:1; fill:none" points="
  2132.48,1440.48 2132.48,1420.77 
  "/>
<polyline clip-path="url(#clip2401)" style="stroke:#000000; stroke-width:4; stroke-opacity:1; fill:none" points="
  251.149,1328.34 282.2,1328.34 
  "/>
<polyline clip-path="url(#clip2401)" style="stroke:#000000; stroke-width:4; stroke-opacity:1; fill:none" points="
  251.149,1054.51 282.2,1054.51 
  "/>
<polyline clip-path="url(#clip2401)" style="stroke:#000000; stroke-width:4; stroke-opacity:1; fill:none" points="
  251.149,780.684 282.2,780.684 
  "/>
<polyline clip-path="url(#clip2401)" style="stroke:#000000; stroke-width:4; stroke-opacity:1; fill:none" points="
  251.149,506.855 282.2,506.855 
  "/>
<polyline clip-path="url(#clip2401)" style="stroke:#000000; stroke-width:4; stroke-opacity:1; fill:none" points="
  251.149,233.026 282.2,233.026 
  "/>
<g clip-path="url(#clip2401)">
<text style="fill:#000000; fill-opacity:1; font-family:Arial,Helvetica Neue,Helvetica,sans-serif; font-size:48; text-anchor:middle;" transform="rotate(0, 505.03, 1494.48)" x="505.03" y="1494.48">7.5</text>
</g>
<g clip-path="url(#clip2401)">
<text style="fill:#000000; fill-opacity:1; font-family:Arial,Helvetica Neue,Helvetica,sans-serif; font-size:48; text-anchor:middle;" transform="rotate(0, 830.519, 1494.48)" x="830.519" y="1494.48">10.0</text>
</g>
<g clip-path="url(#clip2401)">
<text style="fill:#000000; fill-opacity:1; font-family:Arial,Helvetica Neue,Helvetica,sans-serif; font-size:48; text-anchor:middle;" transform="rotate(0, 1156.01, 1494.48)" x="1156.01" y="1494.48">12.5</text>
</g>
<g clip-path="url(#clip2401)">
<text style="fill:#000000; fill-opacity:1; font-family:Arial,Helvetica Neue,Helvetica,sans-serif; font-size:48; text-anchor:middle;" transform="rotate(0, 1481.5, 1494.48)" x="1481.5" y="1494.48">15.0</text>
</g>
<g clip-path="url(#clip2401)">
<text style="fill:#000000; fill-opacity:1; font-family:Arial,Helvetica Neue,Helvetica,sans-serif; font-size:48; text-anchor:middle;" transform="rotate(0, 1806.99, 1494.48)" x="1806.99" y="1494.48">17.5</text>
</g>
<g clip-path="url(#clip2401)">
<text style="fill:#000000; fill-opacity:1; font-family:Arial,Helvetica Neue,Helvetica,sans-serif; font-size:48; text-anchor:middle;" transform="rotate(0, 2132.48, 1494.48)" x="2132.48" y="1494.48">20.0</text>
</g>
<g clip-path="url(#clip2401)">
<text style="fill:#000000; fill-opacity:1; font-family:Arial,Helvetica Neue,Helvetica,sans-serif; font-size:48; text-anchor:end;" transform="rotate(0, 227.149, 1345.84)" x="227.149" y="1345.84">0.80</text>
</g>
<g clip-path="url(#clip2401)">
<text style="fill:#000000; fill-opacity:1; font-family:Arial,Helvetica Neue,Helvetica,sans-serif; font-size:48; text-anchor:end;" transform="rotate(0, 227.149, 1072.01)" x="227.149" y="1072.01">0.85</text>
</g>
<g clip-path="url(#clip2401)">
<text style="fill:#000000; fill-opacity:1; font-family:Arial,Helvetica Neue,Helvetica,sans-serif; font-size:48; text-anchor:end;" transform="rotate(0, 227.149, 798.184)" x="227.149" y="798.184">0.90</text>
</g>
<g clip-path="url(#clip2401)">
<text style="fill:#000000; fill-opacity:1; font-family:Arial,Helvetica Neue,Helvetica,sans-serif; font-size:48; text-anchor:end;" transform="rotate(0, 227.149, 524.355)" x="227.149" y="524.355">0.95</text>
</g>
<g clip-path="url(#clip2401)">
<text style="fill:#000000; fill-opacity:1; font-family:Arial,Helvetica Neue,Helvetica,sans-serif; font-size:48; text-anchor:end;" transform="rotate(0, 227.149, 250.526)" x="227.149" y="250.526">1.00</text>
</g>
<g clip-path="url(#clip2401)">
<text style="fill:#000000; fill-opacity:1; font-family:Arial,Helvetica Neue,Helvetica,sans-serif; font-size:84; text-anchor:middle;" transform="rotate(0, 1286.2, 73.2)" x="1286.2" y="73.2">LTM6423 Efficiency @ Vout = 3.3V</text>
</g>
<g clip-path="url(#clip2401)">
<text style="fill:#000000; fill-opacity:1; font-family:Arial,Helvetica Neue,Helvetica,sans-serif; font-size:66; text-anchor:middle;" transform="rotate(0, 1286.2, 1590.4)" x="1286.2" y="1590.4">Vin (V)</text>
</g>
<g clip-path="url(#clip2401)">
<text style="fill:#000000; fill-opacity:1; font-family:Arial,Helvetica Neue,Helvetica,sans-serif; font-size:66; text-anchor:middle;" transform="rotate(-90, 57.6, 783.233)" x="57.6" y="783.233">Efficiency</text>
</g>
<polyline clip-path="url(#clip2403)" style="stroke:#009af9; stroke-width:4; stroke-opacity:1; fill:none" points="
  309.737,561.784 505.03,604.384 700.324,684.947 895.617,773.497 1090.91,867.64 1286.2,969.512 1481.5,1027.5 1676.79,1101.8 1872.08,1243.37 2067.38,1287.05 
  2262.67,1403.28 
  "/>
<polyline clip-path="url(#clip2403)" style="stroke:#e26f46; stroke-width:4; stroke-opacity:1; fill:none" points="
  309.737,549.783 505.03,586.341 700.324,640.01 895.617,704.75 1090.91,796.554 1286.2,837.154 1481.5,894.971 1676.79,1001.89 1872.08,1050.76 2067.38,1120.71 
  2262.67,1189.46 
  "/>
<polyline clip-path="url(#clip2403)" style="stroke:#3da44d; stroke-width:4; stroke-opacity:1; fill:none" points="
  309.737,577.239 505.03,591.97 700.324,650.363 895.617,662.315 1090.91,744.341 1286.2,783.849 1481.5,816.463 1676.79,873.856 1872.08,920.534 2067.38,954.003 
  2262.67,1035.03 
  "/>
<polyline clip-path="url(#clip2403)" style="stroke:#c271d2; stroke-width:4; stroke-opacity:1; fill:none" points="
  309.737,623.166 505.03,627.485 700.324,662.431 895.617,689.218 1090.91,730.082 1286.2,790.689 1481.5,827.457 1676.79,835.244 1872.08,924.149 2067.38,957.099 
  2262.67,986.962 
  "/>
<polyline clip-path="url(#clip2403)" style="stroke:#ac8d18; stroke-width:4; stroke-opacity:1; fill:none" points="
  309.737,694.243 505.03,710.048 700.324,709.501 895.617,758.765 1090.91,769.893 1286.2,769.55 1481.5,798.513 1676.79,830.668 1872.08,877.674 2067.38,919.042 
  2262.67,931.529 
  "/>
<polyline clip-path="url(#clip2403)" style="stroke:#00a9ad; stroke-width:4; stroke-opacity:1; fill:none" points="
  309.737,241.056 505.03,163.187 700.324,768.407 895.617,278.617 1090.91,235.1 1286.2,341.56 1481.5,342.638 1676.79,352.932 1872.08,483.288 2067.38,448.908 
  2262.67,564.032 
  "/>
<polygon clip-path="url(#clip2401)" points="
1807.19,632.864 2249.26,632.864 2249.26,209.504 1807.19,209.504 
  " fill="#ffffff" fill-opacity="1"/>
<polyline clip-path="url(#clip2401)" style="stroke:#000000; stroke-width:4; stroke-opacity:1; fill:none" points="
  1807.19,632.864 2249.26,632.864 2249.26,209.504 1807.19,209.504 1807.19,632.864 
  "/>
<polyline clip-path="url(#clip2401)" style="stroke:#009af9; stroke-width:4; stroke-opacity:1; fill:none" points="
  1831.19,269.984 1975.19,269.984 
  "/>
<g clip-path="url(#clip2401)">
<text style="fill:#000000; fill-opacity:1; font-family:Arial,Helvetica Neue,Helvetica,sans-serif; font-size:48; text-anchor:start;" transform="rotate(0, 1999.19, 287.484)" x="1999.19" y="287.484">Iout=0.50</text>
</g>
<polyline clip-path="url(#clip2401)" style="stroke:#e26f46; stroke-width:4; stroke-opacity:1; fill:none" points="
  1831.19,330.464 1975.19,330.464 
  "/>
<g clip-path="url(#clip2401)">
<text style="fill:#000000; fill-opacity:1; font-family:Arial,Helvetica Neue,Helvetica,sans-serif; font-size:48; text-anchor:start;" transform="rotate(0, 1999.19, 347.964)" x="1999.19" y="347.964">Iout=1.00</text>
</g>
<polyline clip-path="url(#clip2401)" style="stroke:#3da44d; stroke-width:4; stroke-opacity:1; fill:none" points="
  1831.19,390.944 1975.19,390.944 
  "/>
<g clip-path="url(#clip2401)">
<text style="fill:#000000; fill-opacity:1; font-family:Arial,Helvetica Neue,Helvetica,sans-serif; font-size:48; text-anchor:start;" transform="rotate(0, 1999.19, 408.444)" x="1999.19" y="408.444">Iout=1.50</text>
</g>
<polyline clip-path="url(#clip2401)" style="stroke:#c271d2; stroke-width:4; stroke-opacity:1; fill:none" points="
  1831.19,451.424 1975.19,451.424 
  "/>
<g clip-path="url(#clip2401)">
<text style="fill:#000000; fill-opacity:1; font-family:Arial,Helvetica Neue,Helvetica,sans-serif; font-size:48; text-anchor:start;" transform="rotate(0, 1999.19, 468.924)" x="1999.19" y="468.924">Iout=2.00</text>
</g>
<polyline clip-path="url(#clip2401)" style="stroke:#ac8d18; stroke-width:4; stroke-opacity:1; fill:none" points="
  1831.19,511.904 1975.19,511.904 
  "/>
<g clip-path="url(#clip2401)">
<text style="fill:#000000; fill-opacity:1; font-family:Arial,Helvetica Neue,Helvetica,sans-serif; font-size:48; text-anchor:start;" transform="rotate(0, 1999.19, 529.404)" x="1999.19" y="529.404">Iout=2.50</text>
</g>
<polyline clip-path="url(#clip2401)" style="stroke:#00a9ad; stroke-width:4; stroke-opacity:1; fill:none" points="
  1831.19,572.384 1975.19,572.384 
  "/>
<g clip-path="url(#clip2401)">
<text style="fill:#000000; fill-opacity:1; font-family:Arial,Helvetica Neue,Helvetica,sans-serif; font-size:48; text-anchor:start;" transform="rotate(0, 1999.19, 589.884)" x="1999.19" y="589.884">Iout=3.00</text>
</g>
</svg>
