<?xml version="1.0" encoding="utf-8"?>
<svg xmlns="http://www.w3.org/2000/svg" xmlns:xlink="http://www.w3.org/1999/xlink" width="600" height="400" viewBox="0 0 2400 1600">
<defs>
  <clipPath id="clip2200">
    <rect x="0" y="0" width="2000" height="2000"/>
  </clipPath>
</defs>
<defs>
  <clipPath id="clip2201">
    <rect x="0" y="0" width="2400" height="1600"/>
  </clipPath>
</defs>
<polygon clip-path="url(#clip2201)" points="
0,1600 2400,1600 2400,0 0,0 
  " fill="#ffffff" fill-opacity="1"/>
<defs>
  <clipPath id="clip2202">
    <rect x="480" y="0" width="1681" height="1600"/>
  </clipPath>
</defs>
<polygon clip-path="url(#clip2201)" points="
251.149,1440.48 2321.26,1440.48 2321.26,125.984 251.149,125.984 
  " fill="#ffffff" fill-opacity="1"/>
<defs>
  <clipPath id="clip2203">
    <rect x="251" y="125" width="2071" height="1315"/>
  </clipPath>
</defs>
<polyline clip-path="url(#clip2203)" style="stroke:#000000; stroke-width:2; stroke-opacity:0.1; fill:none" points="
  505.03,1440.48 505.03,125.984 
  "/>
<polyline clip-path="url(#clip2203)" style="stroke:#000000; stroke-width:2; stroke-opacity:0.1; fill:none" points="
  830.519,1440.48 830.519,125.984 
  "/>
<polyline clip-path="url(#clip2203)" style="stroke:#000000; stroke-width:2; stroke-opacity:0.1; fill:none" points="
  1156.01,1440.48 1156.01,125.984 
  "/>
<polyline clip-path="url(#clip2203)" style="stroke:#000000; stroke-width:2; stroke-opacity:0.1; fill:none" points="
  1481.5,1440.48 1481.5,125.984 
  "/>
<polyline clip-path="url(#clip2203)" style="stroke:#000000; stroke-width:2; stroke-opacity:0.1; fill:none" points="
  1806.99,1440.48 1806.99,125.984 
  "/>
<polyline clip-path="url(#clip2203)" style="stroke:#000000; stroke-width:2; stroke-opacity:0.1; fill:none" points="
  2132.48,1440.48 2132.48,125.984 
  "/>
<polyline clip-path="url(#clip2203)" style="stroke:#000000; stroke-width:2; stroke-opacity:0.1; fill:none" points="
  251.149,1308.17 2321.26,1308.17 
  "/>
<polyline clip-path="url(#clip2203)" style="stroke:#000000; stroke-width:2; stroke-opacity:0.1; fill:none" points="
  251.149,1028.54 2321.26,1028.54 
  "/>
<polyline clip-path="url(#clip2203)" style="stroke:#000000; stroke-width:2; stroke-opacity:0.1; fill:none" points="
  251.149,748.921 2321.26,748.921 
  "/>
<polyline clip-path="url(#clip2203)" style="stroke:#000000; stroke-width:2; stroke-opacity:0.1; fill:none" points="
  251.149,469.297 2321.26,469.297 
  "/>
<polyline clip-path="url(#clip2203)" style="stroke:#000000; stroke-width:2; stroke-opacity:0.1; fill:none" points="
  251.149,189.673 2321.26,189.673 
  "/>
<polyline clip-path="url(#clip2201)" style="stroke:#000000; stroke-width:4; stroke-opacity:1; fill:none" points="
  251.149,1440.48 2321.26,1440.48 
  "/>
<polyline clip-path="url(#clip2201)" style="stroke:#000000; stroke-width:4; stroke-opacity:1; fill:none" points="
  251.149,1440.48 251.149,125.984 
  "/>
<polyline clip-path="url(#clip2201)" style="stroke:#000000; stroke-width:4; stroke-opacity:1; fill:none" points="
  505.03,1440.48 505.03,1420.77 
  "/>
<polyline clip-path="url(#clip2201)" style="stroke:#000000; stroke-width:4; stroke-opacity:1; fill:none" points="
  830.519,1440.48 830.519,1420.77 
  "/>
<polyline clip-path="url(#clip2201)" style="stroke:#000000; stroke-width:4; stroke-opacity:1; fill:none" points="
  1156.01,1440.48 1156.01,1420.77 
  "/>
<polyline clip-path="url(#clip2201)" style="stroke:#000000; stroke-width:4; stroke-opacity:1; fill:none" points="
  1481.5,1440.48 1481.5,1420.77 
  "/>
<polyline clip-path="url(#clip2201)" style="stroke:#000000; stroke-width:4; stroke-opacity:1; fill:none" points="
  1806.99,1440.48 1806.99,1420.77 
  "/>
<polyline clip-path="url(#clip2201)" style="stroke:#000000; stroke-width:4; stroke-opacity:1; fill:none" points="
  2132.48,1440.48 2132.48,1420.77 
  "/>
<polyline clip-path="url(#clip2201)" style="stroke:#000000; stroke-width:4; stroke-opacity:1; fill:none" points="
  251.149,1308.17 282.2,1308.17 
  "/>
<polyline clip-path="url(#clip2201)" style="stroke:#000000; stroke-width:4; stroke-opacity:1; fill:none" points="
  251.149,1028.54 282.2,1028.54 
  "/>
<polyline clip-path="url(#clip2201)" style="stroke:#000000; stroke-width:4; stroke-opacity:1; fill:none" points="
  251.149,748.921 282.2,748.921 
  "/>
<polyline clip-path="url(#clip2201)" style="stroke:#000000; stroke-width:4; stroke-opacity:1; fill:none" points="
  251.149,469.297 282.2,469.297 
  "/>
<polyline clip-path="url(#clip2201)" style="stroke:#000000; stroke-width:4; stroke-opacity:1; fill:none" points="
  251.149,189.673 282.2,189.673 
  "/>
<g clip-path="url(#clip2201)">
<text style="fill:#000000; fill-opacity:1; font-family:Arial,Helvetica Neue,Helvetica,sans-serif; font-size:48; text-anchor:middle;" transform="rotate(0, 505.03, 1494.48)" x="505.03" y="1494.48">7.5</text>
</g>
<g clip-path="url(#clip2201)">
<text style="fill:#000000; fill-opacity:1; font-family:Arial,Helvetica Neue,Helvetica,sans-serif; font-size:48; text-anchor:middle;" transform="rotate(0, 830.519, 1494.48)" x="830.519" y="1494.48">10.0</text>
</g>
<g clip-path="url(#clip2201)">
<text style="fill:#000000; fill-opacity:1; font-family:Arial,Helvetica Neue,Helvetica,sans-serif; font-size:48; text-anchor:middle;" transform="rotate(0, 1156.01, 1494.48)" x="1156.01" y="1494.48">12.5</text>
</g>
<g clip-path="url(#clip2201)">
<text style="fill:#000000; fill-opacity:1; font-family:Arial,Helvetica Neue,Helvetica,sans-serif; font-size:48; text-anchor:middle;" transform="rotate(0, 1481.5, 1494.48)" x="1481.5" y="1494.48">15.0</text>
</g>
<g clip-path="url(#clip2201)">
<text style="fill:#000000; fill-opacity:1; font-family:Arial,Helvetica Neue,Helvetica,sans-serif; font-size:48; text-anchor:middle;" transform="rotate(0, 1806.99, 1494.48)" x="1806.99" y="1494.48">17.5</text>
</g>
<g clip-path="url(#clip2201)">
<text style="fill:#000000; fill-opacity:1; font-family:Arial,Helvetica Neue,Helvetica,sans-serif; font-size:48; text-anchor:middle;" transform="rotate(0, 2132.48, 1494.48)" x="2132.48" y="1494.48">20.0</text>
</g>
<g clip-path="url(#clip2201)">
<text style="fill:#000000; fill-opacity:1; font-family:Arial,Helvetica Neue,Helvetica,sans-serif; font-size:48; text-anchor:end;" transform="rotate(0, 227.149, 1325.67)" x="227.149" y="1325.67">0.80</text>
</g>
<g clip-path="url(#clip2201)">
<text style="fill:#000000; fill-opacity:1; font-family:Arial,Helvetica Neue,Helvetica,sans-serif; font-size:48; text-anchor:end;" transform="rotate(0, 227.149, 1046.04)" x="227.149" y="1046.04">0.85</text>
</g>
<g clip-path="url(#clip2201)">
<text style="fill:#000000; fill-opacity:1; font-family:Arial,Helvetica Neue,Helvetica,sans-serif; font-size:48; text-anchor:end;" transform="rotate(0, 227.149, 766.421)" x="227.149" y="766.421">0.90</text>
</g>
<g clip-path="url(#clip2201)">
<text style="fill:#000000; fill-opacity:1; font-family:Arial,Helvetica Neue,Helvetica,sans-serif; font-size:48; text-anchor:end;" transform="rotate(0, 227.149, 486.797)" x="227.149" y="486.797">0.95</text>
</g>
<g clip-path="url(#clip2201)">
<text style="fill:#000000; fill-opacity:1; font-family:Arial,Helvetica Neue,Helvetica,sans-serif; font-size:48; text-anchor:end;" transform="rotate(0, 227.149, 207.173)" x="227.149" y="207.173">1.00</text>
</g>
<g clip-path="url(#clip2201)">
<text style="fill:#000000; fill-opacity:1; font-family:Arial,Helvetica Neue,Helvetica,sans-serif; font-size:84; text-anchor:middle;" transform="rotate(0, 1286.2, 73.2)" x="1286.2" y="73.2">LTM6423 Efficiency @ Vout = 3.3V</text>
</g>
<g clip-path="url(#clip2201)">
<text style="fill:#000000; fill-opacity:1; font-family:Arial,Helvetica Neue,Helvetica,sans-serif; font-size:66; text-anchor:middle;" transform="rotate(0, 1286.2, 1590.4)" x="1286.2" y="1590.4">Vin (V)</text>
</g>
<g clip-path="url(#clip2201)">
<text style="fill:#000000; fill-opacity:1; font-family:Arial,Helvetica Neue,Helvetica,sans-serif; font-size:66; text-anchor:middle;" transform="rotate(-90, 57.6, 783.233)" x="57.6" y="783.233">Efficiency</text>
</g>
<polyline clip-path="url(#clip2203)" style="stroke:#009af9; stroke-width:4; stroke-opacity:1; fill:none" points="
  309.737,513.955 505.03,575.109 700.324,647.981 895.617,739.093 1090.91,862.386 1286.2,891.699 1481.5,965.439 1676.79,1069.68 1872.08,1211.38 2067.38,1318 
  2262.67,1403.28 
  "/>
<polyline clip-path="url(#clip2203)" style="stroke:#e26f46; stroke-width:4; stroke-opacity:1; fill:none" points="
  309.737,503.19 505.03,538.884 700.324,635.922 895.617,663.32 1090.91,763.678 1286.2,821.926 1481.5,867.807 1676.79,967.576 1872.08,1035.13 2067.38,1089.7 
  2262.67,1167.79 
  "/>
<polyline clip-path="url(#clip2203)" style="stroke:#3da44d; stroke-width:4; stroke-opacity:1; fill:none" points="
  309.737,541.518 505.03,552.825 700.324,617.019 895.617,635.853 1090.91,699.82 1286.2,734.888 1481.5,788.941 1676.79,839.864 1872.08,886.878 2067.38,928.949 
  2262.67,1014.21 
  "/>
<polyline clip-path="url(#clip2203)" style="stroke:#c271d2; stroke-width:4; stroke-opacity:1; fill:none" points="
  309.737,594.117 505.03,581.344 700.324,633.167 895.617,648.386 1090.91,702.225 1286.2,723.826 1481.5,758.133 1676.79,806.711 1872.08,896.473 2067.38,913.94 
  2262.67,943.691 
  "/>
<polyline clip-path="url(#clip2203)" style="stroke:#ac8d18; stroke-width:4; stroke-opacity:1; fill:none" points="
  309.737,631.394 505.03,640.422 700.324,674.667 895.617,714.507 1090.91,734.454 1286.2,786.973 1481.5,758.369 1676.79,810.689 1872.08,876.523 2067.38,881.643 
  2262.67,954.682 
  "/>
<polyline clip-path="url(#clip2203)" style="stroke:#00a9ad; stroke-width:4; stroke-opacity:1; fill:none" points="
  309.737,714.977 505.03,163.187 700.324,180.754 895.617,207.226 1090.91,177.555 1286.2,236.27 1481.5,327.628 1676.79,342.441 1872.08,380.121 2067.38,443.583 
  2262.67,535.958 
  "/>
<polygon clip-path="url(#clip2201)" points="
1807.19,632.864 2249.26,632.864 2249.26,209.504 1807.19,209.504 
  " fill="#ffffff" fill-opacity="1"/>
<polyline clip-path="url(#clip2201)" style="stroke:#000000; stroke-width:4; stroke-opacity:1; fill:none" points="
  1807.19,632.864 2249.26,632.864 2249.26,209.504 1807.19,209.504 1807.19,632.864 
  "/>
<polyline clip-path="url(#clip2201)" style="stroke:#009af9; stroke-width:4; stroke-opacity:1; fill:none" points="
  1831.19,269.984 1975.19,269.984 
  "/>
<g clip-path="url(#clip2201)">
<text style="fill:#000000; fill-opacity:1; font-family:Arial,Helvetica Neue,Helvetica,sans-serif; font-size:48; text-anchor:start;" transform="rotate(0, 1999.19, 287.484)" x="1999.19" y="287.484">Iout=0.50</text>
</g>
<polyline clip-path="url(#clip2201)" style="stroke:#e26f46; stroke-width:4; stroke-opacity:1; fill:none" points="
  1831.19,330.464 1975.19,330.464 
  "/>
<g clip-path="url(#clip2201)">
<text style="fill:#000000; fill-opacity:1; font-family:Arial,Helvetica Neue,Helvetica,sans-serif; font-size:48; text-anchor:start;" transform="rotate(0, 1999.19, 347.964)" x="1999.19" y="347.964">Iout=1.00</text>
</g>
<polyline clip-path="url(#clip2201)" style="stroke:#3da44d; stroke-width:4; stroke-opacity:1; fill:none" points="
  1831.19,390.944 1975.19,390.944 
  "/>
<g clip-path="url(#clip2201)">
<text style="fill:#000000; fill-opacity:1; font-family:Arial,Helvetica Neue,Helvetica,sans-serif; font-size:48; text-anchor:start;" transform="rotate(0, 1999.19, 408.444)" x="1999.19" y="408.444">Iout=1.50</text>
</g>
<polyline clip-path="url(#clip2201)" style="stroke:#c271d2; stroke-width:4; stroke-opacity:1; fill:none" points="
  1831.19,451.424 1975.19,451.424 
  "/>
<g clip-path="url(#clip2201)">
<text style="fill:#000000; fill-opacity:1; font-family:Arial,Helvetica Neue,Helvetica,sans-serif; font-size:48; text-anchor:start;" transform="rotate(0, 1999.19, 468.924)" x="1999.19" y="468.924">Iout=2.00</text>
</g>
<polyline clip-path="url(#clip2201)" style="stroke:#ac8d18; stroke-width:4; stroke-opacity:1; fill:none" points="
  1831.19,511.904 1975.19,511.904 
  "/>
<g clip-path="url(#clip2201)">
<text style="fill:#000000; fill-opacity:1; font-family:Arial,Helvetica Neue,Helvetica,sans-serif; font-size:48; text-anchor:start;" transform="rotate(0, 1999.19, 529.404)" x="1999.19" y="529.404">Iout=2.50</text>
</g>
<polyline clip-path="url(#clip2201)" style="stroke:#00a9ad; stroke-width:4; stroke-opacity:1; fill:none" points="
  1831.19,572.384 1975.19,572.384 
  "/>
<g clip-path="url(#clip2201)">
<text style="fill:#000000; fill-opacity:1; font-family:Arial,Helvetica Neue,Helvetica,sans-serif; font-size:48; text-anchor:start;" transform="rotate(0, 1999.19, 589.884)" x="1999.19" y="589.884">Iout=3.00</text>
</g>
</svg>
